HIERARCHY
ROOT Hips
{
	OFFSET 0.00000 0.00000 0.00000
	CHANNELS 6 Xposition Yposition Zposition Zrotation Yrotation Xrotation 
	JOINT LHipJoint
	{
		OFFSET 0 0 0
		CHANNELS 3 Zrotation Yrotation Xrotation
		JOINT LeftUpLeg
		{
			OFFSET 1.28366 -1.58472 0.87544
			CHANNELS 3 Zrotation Yrotation Xrotation
			JOINT LeftLeg
			{
				OFFSET 2.18587 -6.00562 0.00000
				CHANNELS 3 Zrotation Yrotation Xrotation
				JOINT LeftFoot
				{
					OFFSET 2.39085 -6.56880 0.00000
					CHANNELS 3 Zrotation Yrotation Xrotation
					JOINT LeftToeBase
					{
						OFFSET 0.12003 -0.32979 2.03101
						CHANNELS 3 Zrotation Yrotation Xrotation
						End Site
						{
							OFFSET 0.00000 -0.00000 1.04074
						}
					}
				}
			}
		}
	}
	JOINT RHipJoint
	{
		OFFSET 0 0 0
		CHANNELS 3 Zrotation Yrotation Xrotation
		JOINT RightUpLeg
		{
			OFFSET -1.21795 -1.58472 0.87544
			CHANNELS 3 Zrotation Yrotation Xrotation
			JOINT RightLeg
			{
				OFFSET -2.22714 -6.11902 0.00000
				CHANNELS 3 Zrotation Yrotation Xrotation
				JOINT RightFoot
				{
					OFFSET -2.40306 -6.60235 0.00000
					CHANNELS 3 Zrotation Yrotation Xrotation
					JOINT RightToeBase
					{
						OFFSET -0.15519 -0.42640 1.91430
						CHANNELS 3 Zrotation Yrotation Xrotation
						End Site
						{
							OFFSET -0.00000 -0.00000 0.99082
						}
					}
				}
			}
		}
	}
	JOINT LowerBack
	{
		OFFSET 0 0 0
		CHANNELS 3 Zrotation Yrotation Xrotation
		JOINT Spine
		{
			OFFSET 0.01180 1.76430 -0.06387
			CHANNELS 3 Zrotation Yrotation Xrotation
			JOINT Spine1
			{
				OFFSET -0.00388 1.74651 0.09536
				CHANNELS 3 Zrotation Yrotation Xrotation
				JOINT Neck
				{
					OFFSET 0 0 0
					CHANNELS 3 Zrotation Yrotation Xrotation
					JOINT Neck1
					{
						OFFSET 0.04111 1.46174 0.14397
						CHANNELS 3 Zrotation Yrotation Xrotation
						JOINT Head
						{
							OFFSET 0.00502 1.44580 -0.31711
							CHANNELS 3 Zrotation Yrotation Xrotation
							End Site
							{
								OFFSET -0.00395 1.49251 -0.12327
							}
						}
					}
				}
				JOINT LeftShoulder
				{
					OFFSET 0 0 0
					CHANNELS 3 Zrotation Yrotation Xrotation
					JOINT LeftArm
					{
						OFFSET 2.70917 1.34870 -0.15417
						CHANNELS 3 Zrotation Yrotation Xrotation
						JOINT LeftForeArm
						{
							OFFSET 4.46610 -0.00000 -0.00000
							CHANNELS 3 Zrotation Yrotation Xrotation
							JOINT LeftHand
							{
								OFFSET 3.41414 -0.00000 0.00000
								CHANNELS 3 Zrotation Yrotation Xrotation
								JOINT LeftFingerBase
								{
									OFFSET 0 0 0
									CHANNELS 3 Zrotation Yrotation Xrotation
									JOINT LeftHandIndex1
									{
										OFFSET 0.32830 -0.00000 0.00000
										CHANNELS 3 Zrotation Yrotation Xrotation
										End Site
										{
											OFFSET 0.26468 -0.00000 0.00000
										}
									}
								}
								JOINT LThumb
								{
									OFFSET 0 0 0
									CHANNELS 3 Zrotation Yrotation Xrotation
									End Site
									{
										OFFSET 0.26872 -0.00000 0.26872
									}
								}
							}
						}
					}
				}
				JOINT RightShoulder
				{
					OFFSET 0 0 0
					CHANNELS 3 Zrotation Yrotation Xrotation
					JOINT RightArm
					{
						OFFSET -3.06316 1.13725 -0.10883
						CHANNELS 3 Zrotation Yrotation Xrotation
						JOINT RightForeArm
						{
							OFFSET -4.40431 -0.00000 0.00000
							CHANNELS 3 Zrotation Yrotation Xrotation
							JOINT RightHand
							{
								OFFSET -3.04688 -0.00000 0.00000
								CHANNELS 3 Zrotation Yrotation Xrotation
								JOINT RightFingerBase
								{
									OFFSET 0 0 0
									CHANNELS 3 Zrotation Yrotation Xrotation
									JOINT RightHandIndex1
									{
										OFFSET -0.50049 -0.00000 0.00000
										CHANNELS 3 Zrotation Yrotation Xrotation
										End Site
										{
											OFFSET -0.40351 -0.00000 0.00000
										}
									}
								}
								JOINT RThumb
								{
									OFFSET 0 0 0
									CHANNELS 3 Zrotation Yrotation Xrotation
									End Site
									{
										OFFSET -0.40967 -0.00000 0.40967
									}
								}
							}
						}
					}
				}
			}
		}
	}
}
MOTION
Frames: 8
Frame Time: .0083333
2.9587 12.7416 10.7708 0 0 0 0 0 0 -21 0 0 0 0 0 0 0 0 0 0 0 0 0 0 21 0 0 0 0 0 0 0 0 0 0 0 0 0 0 0 0 0 0 0 0 0 0 -16 0 0 21 0 0 11 0 0 0 -8 0 0 0 0 0 0 0 0 0 0 0 0 0 0 0 0 0 0 0 0 8 0 0 0 0 0 0 0 0 0 0 0 0 0 0 0 0 0
2.9587 12.7416 10.7708 -178.2890 1.1493 -175.4610 0.0000 0.0000 0.0000 -10.4714 26.8426 -50.0126 17.3726 19.8337 82.2976 3.3616 -9.3283 -33.2033 0.0025 -0.3248 -0.8924 0.0000 0.0000 0.0000 17.0344 -24.8909 -53.0610 -18.1128 -19.9144 84.4747 -3.6840 12.1622 -34.7771 -0.1704 -2.6589 7.3306 1.1547 2.1200 6.0492 0.1624 3.2903 -6.4841 -0.9803 1.6339 -10.2494 0.7651 1.8488 -19.8598 7.8621 -0.1086 20.6026 2.5916 0.7543 9.8589 -0.0000 -0.0000 0.0000 1.5562 4.3433 36.2731 19.7748 -30.3701 -5.4170 -0.0000 0.0000 -18.0277 5.2043 -0.9039 -0.0823 -7.1250 0.0000 -0.0000 -16.5048 28.8798 6.7384 -0.0000 -0.0000 0.0000 6.6001 -8.3066 32.9284 -20.3688 31.0841 -5.7205 0.0000 -0.0000 -9.6812 -3.4975 14.5123 -0.8775 7.1250 -0.0000 -0.0000 16.2228 -15.8028 11.6753
2.9571 12.7492 10.7693 -178.2940 1.0501 -175.4890 0.0000 0.0000 0.0000 -10.4805 26.7497 -49.9102 17.3308 19.8283 82.1743 3.3556 -9.2434 -33.1766 0.0038 -0.3981 -1.0939 0.0000 0.0000 0.0000 17.0119 -24.8784 -52.9330 -18.0697 -19.9104 84.3481 -3.6846 12.0978 -34.7797 -0.1897 -2.8052 7.7367 1.1672 2.0905 6.0187 0.1853 3.2543 -6.4816 -0.9562 1.6173 -10.2297 0.7152 1.8308 -19.8309 7.8976 -0.1286 20.6112 2.6092 0.7439 9.8572 -0.0000 -0.0000 0.0000 1.5311 4.3208 36.2645 19.8014 -30.4023 -5.4305 -0.0000 0.0000 -18.0339 5.1321 -0.8847 -0.0795 -7.1250 0.0000 -0.0000 -16.5622 28.8969 6.7566 -0.0000 -0.0000 0.0000 6.5942 -8.2656 32.9600 -20.3461 31.0570 -5.7088 0.0000 -0.0000 -9.5658 -3.5436 14.4822 -0.8872 7.1250 -0.0000 -0.0000 16.1944 -15.8298 11.6432
2.9558 12.7576 10.7682 -178.3370 0.9160 -175.5100 0.0000 0.0000 0.0000 -10.5252 26.6032 -49.8054 17.2915 19.8232 82.0585 3.3441 -9.3396 -33.1118 0.0022 -0.3018 -0.8294 0.0000 0.0000 0.0000 16.9502 -24.8782 -52.8201 -18.0294 -19.9066 84.2298 -3.6901 12.0168 -34.8061 -0.1944 -2.8390 7.8309 1.1876 2.0541 5.9972 0.1833 3.2089 -6.4910 -0.9624 1.5945 -10.2269 0.6402 1.7931 -19.7983 7.9184 -0.1653 20.6358 2.6239 0.7224 9.8610 -0.0000 -0.0000 0.0000 1.4939 4.2933 36.2461 19.8417 -30.4512 -5.4509 -0.0000 0.0000 -18.0849 5.1111 -0.9141 -0.0818 -7.1250 0.0000 -0.0000 -16.5735 28.8682 6.7734 -0.0000 -0.0000 0.0000 6.5886 -8.2484 32.9763 -20.3179 31.0234 -5.6943 0.0000 -0.0000 -9.4151 -3.6279 14.5329 -0.9115 7.1250 -0.0000 -0.0000 16.1353 -15.7777 11.6159
2.9541 12.7639 10.7671 -178.3600 0.7675 -175.5370 0.0000 0.0000 0.0000 -10.5487 26.4637 -49.7224 17.2581 19.8188 81.9600 3.3365 -9.3037 -33.0744 0.0028 -0.3395 -0.9327 0.0000 0.0000 0.0000 16.9124 -24.9113 -52.7175 -17.9923 -19.9031 84.1207 -3.6918 11.9935 -34.8143 -0.2066 -2.9264 8.0738 1.2386 2.0142 5.9763 0.1817 3.1607 -6.4900 -0.9846 1.5679 -10.2115 0.5885 1.7540 -19.7933 7.9181 -0.2075 20.6729 2.6272 0.6988 9.8746 -0.0000 -0.0000 0.0000 1.4434 4.2626 36.1768 19.8721 -30.4880 -5.4663 -0.0000 0.0000 -18.1460 5.1342 -0.9223 -0.0829 -7.1250 0.0000 -0.0000 -16.5547 28.8607 6.7683 -0.0000 -0.0000 0.0000 6.6071 -8.2399 32.9571 -20.2957 30.9970 -5.6829 0.0000 -0.0000 -9.2561 -3.6884 14.5336 -0.9268 7.1250 -0.0000 -0.0000 16.0952 -15.7745 11.5858
2.9525 12.7703 10.7657 -178.4030 0.6723 -175.5640 0.0000 0.0000 0.0000 -10.5999 26.3618 -49.6213 17.2219 19.8139 81.8532 3.3335 -9.3231 -33.0576 0.0024 -0.3139 -0.8624 0.0000 0.0000 0.0000 16.8645 -24.9219 -52.6211 -17.9552 -19.8995 84.0118 -3.7034 11.8804 -34.8703 -0.2066 -2.9266 8.0746 1.2551 2.0239 5.9575 0.1553 3.1734 -6.4906 -1.0229 1.5721 -10.1981 0.5770 1.6994 -19.7546 7.9190 -0.2777 20.6474 2.6183 0.6637 9.8615 -0.0000 -0.0000 0.0000 1.4314 4.1327 36.1367 19.9031 -30.5254 -5.4820 -0.0000 0.0000 -18.2655 5.2322 -0.9248 -0.0847 -7.1250 0.0000 -0.0000 -16.4804 28.8602 6.7356 -0.0000 -0.0000 0.0000 6.6520 -8.3255 32.9132 -20.2644 30.9595 -5.6667 0.0000 -0.0000 -9.1697 -3.7141 14.5798 -0.9362 7.1250 -0.0000 -0.0000 16.0751 -15.7289 11.5866
2.9510 12.7770 10.7644 -178.4290 0.5675 -175.5910 0.0000 0.0000 0.0000 -10.6288 26.2652 -49.5278 17.1876 19.8093 81.7518 3.3277 -9.3505 -33.0260 0.0020 -0.2919 -0.8020 0.0000 0.0000 0.0000 16.8274 -24.9236 -52.5133 -17.9181 -19.8958 83.9028 -3.7109 11.8035 -34.9071 -0.2150 -2.9848 8.2366 1.2776 2.0104 5.9380 0.1520 3.1576 -6.4904 -1.0358 1.5631 -10.1852 0.5473 1.6616 -19.7315 7.9180 -0.3212 20.6515 2.6164 0.6404 9.8605 0.0000 -0.0000 0.0000 1.4036 4.0685 36.1028 19.9368 -30.5661 -5.4992 -0.0000 0.0000 -18.3393 5.2635 -0.9351 -0.0861 -7.1250 0.0000 -0.0000 -16.4552 28.8508 6.7284 0.0000 -0.0000 0.0000 6.6655 -8.3485 32.9003 -20.2424 30.9332 -5.6554 0.0000 -0.0000 -9.0789 -3.7476 14.5865 -0.9451 7.1250 -0.0000 -0.0000 16.0525 -15.7212 11.5717
2.9496 12.7834 10.7631 -178.4530 0.4731 -175.6170 0.0000 0.0000 0.0000 -10.6548 26.1855 -49.4383 17.1537 19.8046 81.6520 3.3217 -9.3902 -32.9928 0.0016 -0.2623 -0.7207 0.0000 0.0000 0.0000 16.7938 -24.9188 -52.4065 -17.8817 -19.8921 83.7959 -3.7185 11.7272 -34.9445 -0.2232 -3.0411 8.3931 1.2992 2.0003 5.9206 0.1500 3.1465 -6.4903 -1.0476 1.5566 -10.1737 0.5259 1.6263 -19.7023 7.9121 -0.3612 20.6469 2.6117 0.6185 9.8550 0.0000 0.0000 0.0000 1.3811 4.0066 36.0778 19.9712 -30.6077 -5.5167 -0.0000 0.0000 -18.4107 5.2923 -0.9455 -0.0876 -7.1250 0.0000 -0.0000 -16.4318 28.8413 6.7219 0.0000 0.0000 0.0000 6.6759 -8.3710 32.8897 -20.2226 30.9096 -5.6452 0.0000 -0.0000 -9.0081 -3.7705 14.5844 -0.9507 7.1250 -0.0000 -0.0000 16.0374 -15.7222 11.5595
